<?xml version="1.0" encoding="UTF-8"?>
<!DOCTYPE svg PUBLIC "-//W3C//DTD SVG 1.1//EN" "http://www.w3.org/Graphics/SVG/1.1/DTD/svg11.dtd">
<svg xmlns="http://www.w3.org/2000/svg" version="1.1" width="63px" height="393px" style="shape-rendering:geometricPrecision; text-rendering:geometricPrecision; image-rendering:optimizeQuality; fill-rule:evenodd; clip-rule:evenodd" xmlns:xlink="http://www.w3.org/1999/xlink">
<g><path style="opacity:0.923" fill="transparent" stroke='#fff' d="M 33.5,392.5 C 31.8333,392.5 30.1667,392.5 28.5,392.5C 21.6246,378.947 14.2912,365.614 6.5,352.5C 9.29106,350.265 12.2911,348.265 15.5,346.5C 18.9185,351.668 22.0852,357.002 25,362.5C 25.5,242.167 25.6667,121.834 25.5,1.5C 29.1667,1.5 32.8333,1.5 36.5,1.5C 36.3333,122.834 36.5,244.167 37,365.5C 40.9718,359.362 45.1384,353.362 49.5,347.5C 52.8103,349.482 55.8103,351.815 58.5,354.5C 49.6488,366.881 41.3155,379.548 33.5,392.5 Z"/></g>
</svg>
